<svg xmlns="http://www.w3.org/2000/svg" version="1.1" xmlns:xlink="http://www.w3.org/1999/xlink" xmlns:svgjs="http://svgjs.dev/svgjs" width="1500" height="1500" viewBox="0 0 1500 1500"><rect width="1500" height="1500" fill="#0c1d36"></rect><g transform="matrix(0.6666666666666666,0,0,0.6666666666666666,250.71875000000006,213.48516279069776)"><svg viewBox="0 0 160 172" data-background-color="#0c1d36" preserveAspectRatio="xMidYMid meet" height="1612" width="1500" xmlns="http://www.w3.org/2000/svg" xmlns:xlink="http://www.w3.org/1999/xlink"><g id="tight-bounds" transform="matrix(1,0,0,1,-0.1150000000000091,-0.13100000000000023)"><svg viewBox="0 0 160.22990944510002 172.26168029282132" height="172.26168029282132" width="160.22990944510002"><g><svg viewBox="0 0 160.22990944510002 172.26168029282132" height="172.26168029282132" width="160.22990944510002"><g><svg viewBox="0 0 160.22990944510002 172.26168029282132" height="172.26168029282132" width="160.22990944510002"><g><path d="M0 172.262v-172.262h160.23v172.262z" fill="#f9cc0b" stroke="transparent" stroke-width="0" rx="0%" data-fill-palette-color="tertiary"></path><path d="M3.283 168.978v-165.695h153.664v165.695z" fill="#0c1d36" stroke="transparent" stroke-width="0" rx="0%" data-fill-palette-color="quaternary"></path><path d="M9.85 162.412v-152.562h140.53v152.562z" fill="#f9cc0b" stroke="transparent" stroke-width="0" data-fill-palette-color="tertiary"></path></g><g transform="matrix(1,0,0,1,19.69973999999999,19.69974)" id="textblocktransform"><svg viewBox="0 0 120.83042944510004 132.8622002928213" height="132.8622002928213" width="120.83042944510004" id="textblock"><g><svg viewBox="0 0 120.83042944510004 100.57561757280003" height="100.57561757280003" width="120.83042944510004"><g transform="matrix(1,0,0,1,0,0)"><svg width="120.83042944510004" viewBox="2.4 -36 43.25 36" height="100.57561757280003" data-palette-color="#0c1d36"><path d="M24.1-4.55L24.3-4.55 33.95-36 45.65-36 45.65-33.85 41.45-32.8 41.45-3.2 45.65-2.15 45.65 0 32.8 0 32.8-2.15 36.45-3.2 36.45-32.75 26.15 0 20.25 0 9.85-32.75 9.85-3.2 13.5-2.15 13.5 0 2.4 0 2.4-2.15 6.6-3.2 6.6-32.8 2.4-33.85 2.4-36 14.3-36 24.1-4.55Z" opacity="1" transform="matrix(1,0,0,1,0,0)" fill="#0c1d36" class="wordmark-text-0" data-fill-palette-color="quaternary" id="text-0"></path></svg></g></svg></g><g transform="matrix(1,0,0,1,0,107.14219757280003)"><svg viewBox="0 0 120.83042944510004 25.72000272002129" height="25.72000272002129" width="120.83042944510004"><g transform="matrix(1,0,0,1,0,0)"><svg width="120.83042944510004" viewBox="5 -28.75 135.29 28.8" height="25.72000272002129" data-palette-color="#0c1d36"><path d="M5-28.75L5-28.75 10.7-28.75 21-19.05 21-11.5 11.3-20.65 11.3 0 5 0 5-28.75ZM39.45-28.75L39.45-28.75 33.8-28.75 23.45-19.05 23.45-11.5 33.15-20.65 33.15 0 39.45 0 39.45-28.75ZM44.45-3.4L44.45-9.75 50.15-13.2 58.35-13.2 58.35-9.35 50.8-9.35 50.8-5.25 58.35-5.25 58.35 0.05 50.15 0.05 44.45-3.4ZM50.8-15.05L44.45-15.05 44.45-18.5 50.15-22 58.35-22 58.35-17.3 50.8-17.3 50.8-15.05ZM74.45 0.05L74.45-18.5 68.75-22 60.55-22 60.55-17.3 68.1-17.3 68.1-13.2 60.55-13.2 60.55-9.35 68.1-9.35 68.1-5.25 60.75-5.25 60.75 0.05 74.45 0.05ZM83.95 0L83.95-21.85 90.2-21.85 90.2-19.7 97.7-21.85 97.7-17.2 90.2-17.2 90.2 0 83.95 0ZM106.45-15.05L106.45-19.1 99.95-21.85 99.95-15.05 106.45-15.05ZM110.94-3.5L110.94-18.55 116.79-22 124.69-22 124.69-17.3 117.19-17.3 117.19-5.4 124.69-5.4 124.69-0.05 116.79-0.05 110.94-3.5ZM140.29-3.5L140.29-18.55 134.44-22 126.49-22 126.49-17.3 134.04-17.3 134.04-5.4 126.49-5.4 126.49-0.05 134.44-0.05 140.29-3.5Z" opacity="1" transform="matrix(1,0,0,1,0,0)" fill="#0c1d36" class="slogan-text-1" data-fill-palette-color="quaternary" id="text-1"></path></svg></g></svg></g></svg></g></svg></g><g></g></svg></g><defs></defs></svg><rect width="160.22990944510002" height="172.26168029282132" fill="none" stroke="none" visibility="hidden"></rect></g></svg></g></svg>